<?xml version="1.0" encoding="UTF-8" standalone="no"?>
<!-- Created with Inkscape (http://www.inkscape.org/) -->

<svg
   version="1.1"
   id="svg1"
   width="211"
   height="119"
   viewBox="0 0 211 119"
   sodipodi:docname="Tracé_Figma_Inskcape_CouleurOk.svg"
   inkscape:version="1.4.2 (f4327f4, 2025-05-13)"
   xmlns:inkscape="http://www.inkscape.org/namespaces/inkscape"
   xmlns:sodipodi="http://sodipodi.sourceforge.net/DTD/sodipodi-0.dtd"
   xmlns="http://www.w3.org/2000/svg"
   xmlns:svg="http://www.w3.org/2000/svg">
  <defs
     id="defs1" />
  <sodipodi:namedview
     id="namedview1"
     pagecolor="#ffffff"
     bordercolor="#000000"
     borderopacity="0.25"
     inkscape:showpageshadow="2"
     inkscape:pageopacity="0.0"
     inkscape:pagecheckerboard="0"
     inkscape:deskcolor="#d1d1d1"
     inkscape:zoom="4.3674242"
     inkscape:cx="115.17086"
     inkscape:cy="58.157849"
     inkscape:window-width="1436"
     inkscape:window-height="1501"
     inkscape:window-x="2871"
     inkscape:window-y="0"
     inkscape:window-maximized="0"
     inkscape:current-layer="g1" />
  <g
     inkscape:groupmode="layer"
     inkscape:label="Image"
     id="g1">
    <path
       style="fill:#000080"
       d="m 87.749615,113.56794 c -1.30657,-0.98089 -5.58377,-15.337078 -15.25,-51.185793 -7.38877,-27.40241 -13.43413,-50.379529 -13.43413,-51.060266 0,-1.6601679 3.28503,-4.5476771 5.17375,-4.5476771 0.83395,0 2.21588,0.7875002 3.07097,1.7500002 0.85508,0.9625 7.04391,22.1924849 13.75296,47.1777429 6.70905,24.98526 12.49983,46.242923 12.8684,47.239273 0.6365,1.72061 0.88885,1.70331 5.02837,-0.34476 5.287135,-2.615878 13.489805,-10.535103 17.942235,-17.322263 l 3.28005,-5 -4.5225,-0.54198 c -8.79992,-1.05461 -12.67933,-8.18937 -10.75821,-19.78586 0.57656,-3.48031 1.63682,-7.039066 2.35614,-7.908356 2.12157,-2.563916 13.01903,-7.263371 16.80784,-7.248266 5.18576,0.02067 8.2394,1.975163 10.70019,6.848686 l 2.20018,4.357406 4.01695,-6.21499 c 4.81985,-7.457246 8.03384,-15.683497 8.78909,-22.495769 1.02087,-9.208199 7.2244,-12.811529 9.42298,-5.473346 3.15053,10.515543 -5.82886,31.371125 -19.56406,45.439565 -2.92472,2.99569 -6.08165,7.37635 -7.0154,9.73481 -5.18809,13.10405 -18.97234,29.401393 -29.02927,34.321793 -6.645005,3.2511 -13.259115,4.195 -15.836535,2.26005 z M 122.81549,67.785157 c 3.03423,-1.85 3.25,-2.34769 3.25,-7.49626 0,-6.2872 -1.1048,-6.86297 -7.40451,-3.85884 -2.80421,1.33723 -3.59595,2.38742 -4.1147,5.45782 -1.30625,7.73166 1.72042,9.89016 8.26921,5.89728 z"
       id="path1" />
  </g>
</svg>
